<?xml version="1.0" standalone="no"?>

<svg xmlns="http://www.w3.org/2000/svg" viewBox="0 0 300 300" width="300" height="300">
    <defs>
            <!-- 1. 圆环用的水墨滤镜：边缘稍微有点毛刺，但整体完整 -->
            <filter id="ink-wash-circle">
                <feTurbulence type="fractalNoise" baseFrequency="0.03" numOctaves="3" seed="2" result="noise"></feTurbulence>
                <feDisplacementMap in="SourceGraphic" in2="noise" scale="6" result="displaced"></feDisplacementMap>
                <feGaussianBlur in="displaced" stdDeviation="0.5"></feGaussianBlur>
            </filter>

            <!-- 2. 墨点飞溅滤镜 -->
            <filter id="ink-splatter">
                <feGaussianBlur in="SourceGraphic" stdDeviation="1" result="blur"></feGaussianBlur>
                <feTurbulence type="fractalNoise" baseFrequency="0.2" numOctaves="3" result="noise"></feTurbulence>
                <feDisplacementMap in="blur" in2="noise" scale="8" result="displaced"></feDisplacementMap>
                <feColorMatrix in="displaced" mode="matrix" values="1 0 0 0 0  0 1 0 0 0  0 0 1 0 0  0 0 0 19 -9"></feColorMatrix>
            </filter>
            
            <!-- 3. 文字质感滤镜：轻微腐蚀，保持清晰 -->
            <filter id="text-grit">
                 <feTurbulence type="fractalNoise" baseFrequency="0.5" numOctaves="1" result="noise"></feTurbulence>
                 <feComposite operator="in" in="noise" in2="SourceGraphic" result="composite"></feComposite>
                 <feBlend mode="multiply" in="composite" in2="SourceGraphic"></feBlend>
            </filter>

            <!-- 资源：大圆环路径 (Version 2 的那个) -->
            <path id="path-big-circle" d="M 128 20 C 60 20 15 70 20 135 C 25 190 70 235 130 230 C 200 225 240 170 235 110 C 230 60 190 25 128 20 M 135 35 C 185 38 220 75 215 120 C 210 160 180 210 130 215 C 75 220 40 175 35 130 C 30 80 70 30 135 35"></path>
        </defs>
    
    <!-- 背景层：淡墨大圆环 -->
    <!-- 放大1.1倍并居中，透明度设为 0.15 (极淡) -->
    <g transform="translate(150, 150) rotate(108.29250543086229) scale(1.1) translate(-128, -128)" opacity="0.15">
        <path d="M 128 20 C 60 20 15 70 20 135 C 25 190 70 235 130 230 C 200 225 240 170 235 110 C 230 60 190 25 128 20 M 135 35 C 185 38 220 75 215 120 C 210 160 180 210 130 215 C 75 220 40 175 35 130 C 30 80 70 30 135 35" fill="#111" filter="url(#ink-wash-circle)" />
    </g>

    <!-- 中层：墨点 -->
    <circle cx="29.124853741314112" cy="212.1751164657116" r="2.7386196298590195" fill="#222" filter="url(#ink-splatter)" opacity="0.3177159858950422"/><circle cx="25.77572470537089" cy="118.52648386139671" r="4.361116272781788" fill="#222" filter="url(#ink-splatter)" opacity="0.41505923507264725"/><circle cx="65.29468761451126" cy="40.71508113089922" r="4.697821953942228" fill="#222" filter="url(#ink-splatter)" opacity="0.485014647705458"/><circle cx="142.32396043525767" cy="281.90113212349644" r="2.2163175012802547" fill="#222" filter="url(#ink-splatter)" opacity="0.49412614391900095"/><circle cx="260.8242873013428" cy="157.83238798820145" r="2.0438403710057473" fill="#222" filter="url(#ink-splatter)" opacity="0.41440575961308"/><circle cx="163.94158533034297" cy="233.2718420748393" r="4.228361790516905" fill="#222" filter="url(#ink-splatter)" opacity="0.48930591530490497"/><circle cx="77.63530574866023" cy="195.2696936607291" r="4.906850032232949" fill="#222" filter="url(#ink-splatter)" opacity="0.30597874835971806"/><circle cx="223.8363408173576" cy="105.66666348877092" r="4.5562443407050734" fill="#222" filter="url(#ink-splatter)" opacity="0.5026679491236168"/>

    <!-- 文字层 -->
    <g>
        <!-- 1. 白色光晕 (Halo) 确保文字不被圆环干扰 -->
        <path d="M98.91 105.59Q99.43 105.07 99.95 105.33Q100.47 105.59 102.16 107.15L102.16 107.15L104.24 109.10L103.98 112.48Q103.59 115.86 104.17 117.35Q104.76 118.85 104.05 119.89Q103.33 120.93 103.72 121.58Q104.11 122.23 104.50 129.25L104.50 129.25Q104.89 137.57 106.32 140.88Q107.75 144.20 111.52 145.63L111.52 145.63Q114.51 146.54 119.19 146.54L119.19 146.54Q128.16 146.54 130.50 143.29L130.50 143.29Q133.62 139 134.40 134.58L134.40 134.58Q134.79 132.11 135.70 128.86L135.70 128.86Q136.48 126.26 137 126.32Q137.52 126.39 137.52 128.86L137.52 128.86Q137.52 130.81 138.04 130.81L138.04 130.81Q138.56 130.81 139.34 132.56Q140.12 134.32 140.12 135.75L140.12 135.75Q140.12 137.31 142.59 139.91L142.59 139.91Q144.02 141.73 144.41 142.70Q144.80 143.68 144.80 145.24L144.80 145.24Q144.80 146.80 144.09 148.75Q143.37 150.70 142.72 151.48L142.72 151.48Q142.46 151.61 142.07 152.91Q141.68 154.21 139.08 157.46Q136.48 160.71 134.14 161.49L134.14 161.49Q130.63 162.53 123.67 161.88Q116.72 161.23 111.52 159.15L111.52 159.15Q108.53 158.11 104.24 153.88Q99.95 149.66 99.17 147.32L99.17 147.32Q97.74 142.64 97.22 122.49L97.22 122.49Q97.09 112.09 97.35 109.29Q97.61 106.50 98.91 105.59L98.91 105.59ZM108.53 73.09Q109.57 72.05 113.67 72.24Q117.76 72.44 121.01 73.74L121.01 73.74Q123.35 74.65 123.87 75.11Q124.39 75.56 124.65 76.86L124.65 76.86Q125.56 82.58 123.87 84.40L123.87 84.40Q122.57 85.83 120.81 86.41Q119.06 87 117.76 86.35L117.76 86.35Q116.20 85.83 112.11 81.86Q108.01 77.90 108.27 77.12L108.27 77.12Q108.53 76.34 108.14 76.34L108.14 76.34Q107.75 76.34 107.69 75.75Q107.62 75.17 107.88 74.39Q108.14 73.61 108.53 73.09L108.53 73.09ZM87.08 81.80Q87.21 77.25 87.41 75.69Q87.60 74.13 88.45 72.31Q89.29 70.49 89.68 70.16Q90.07 69.84 91.11 69.97L91.11 69.97Q92.67 70.23 94.49 71.53L94.49 71.53Q98.65 74.39 97.87 83.36L97.87 83.36Q97.61 87.91 97.28 88.43Q96.96 88.95 96.83 91.68L96.83 91.68Q96.57 93.50 96.70 93.83Q96.83 94.15 97.74 94.15L97.74 94.15Q98.91 94.15 103.07 93.11Q107.23 92.07 107.81 91.61Q108.40 91.16 110.74 90.83Q113.08 90.51 114.90 90.25L114.90 90.25Q118.80 89.60 120.49 94.54L120.49 94.54Q121.14 96.88 121.14 97.72Q121.14 98.57 120.36 99.61L120.36 99.61Q119.58 100.26 117.31 100.39Q115.03 100.52 112.82 100L112.82 100Q111.52 99.61 106.58 99.87Q101.64 100.13 98.65 100.78L98.65 100.78Q95.01 101.56 95.01 105.33L95.01 105.33Q95.01 107.15 94.03 111.50Q93.06 115.86 92.54 117.16L92.54 117.16Q91.89 118.20 91.89 119.24L91.89 119.24Q91.89 120.93 89.42 125.87L89.42 125.87Q88.77 127.30 88.77 127.82Q88.77 128.34 87.21 131.72Q85.65 135.10 85.65 135.75Q85.65 136.40 84.03 138.74Q82.40 141.08 82.40 141.60L82.40 141.60Q82.40 142.12 80.58 144.46Q78.76 146.80 77.20 148.10L77.20 148.10Q75.12 150.05 72.13 152.32Q69.14 154.60 68.81 154.60Q68.49 154.60 68.10 155.31Q67.71 156.03 67.71 157.07L67.71 157.07Q67.71 157.98 64.40 161.43Q61.08 164.87 57.18 166.69L57.18 166.69Q54.06 168.12 53.34 168.25Q52.63 168.38 51.20 167.86L51.20 167.86Q49.38 166.82 49.38 165.65Q49.38 164.48 48.80 164.48Q48.21 164.48 47.89 163.57Q47.56 162.66 43.01 158.24L43.01 158.24Q35.73 151.09 38.59 151.48L38.59 151.48Q39.50 151.61 41.71 152.65L41.71 152.65Q43.79 153.69 46.20 153.88Q48.60 154.08 49.90 153.43L49.90 153.43Q51.20 152.65 53.80 149.07Q56.40 145.50 57.31 143.03L57.31 143.03Q58.35 140.04 58.74 132.63L58.74 132.63Q59 125.22 57.96 125.09L57.96 125.09Q57.44 125.09 55.62 126.78L55.62 126.78Q53.80 128.21 53.41 128.28Q53.02 128.34 51.39 129.90Q49.77 131.46 49.38 131.46Q48.99 131.46 47.17 133.15L47.17 133.15Q45.87 134.45 41.39 137.70Q36.90 140.95 36.38 140.95L36.38 140.95Q36.25 140.95 33.39 142.77Q30.53 144.59 30.01 144.33Q29.49 144.07 28.19 144.46L28.19 144.46Q27.02 144.85 26.11 144.72Q25.20 144.59 25.20 143.94L25.20 143.94Q25.20 143.42 32.22 136.20Q39.24 128.99 41.45 126.52L41.45 126.52L44.83 122.49Q49.38 117.42 49.38 116.38L49.38 116.38Q49.38 116.12 51.59 113.13L51.59 113.13Q54.71 109.23 55.49 107.22Q56.27 105.20 55.88 102.73L55.88 102.73Q55.36 100.26 54.84 99.67Q54.32 99.09 53.15 100.39L53.15 100.39Q46.78 107.41 44.96 108.19L44.96 108.19Q43.40 108.97 42.10 110.27L42.10 110.27Q38.46 113.78 35.60 114.43L35.60 114.43Q33.91 114.69 34.30 114.04L34.30 114.04Q34.43 113.39 35.73 112.35L35.73 112.35Q37.29 110.79 37.09 110.14Q36.90 109.49 37.42 108.71L37.42 108.71Q38.33 107.93 41.78 103.38Q45.22 98.83 45.22 98.57L45.22 98.57Q45.22 98.18 50.42 91.68L50.42 91.68Q51.07 90.90 48.73 88.69L48.73 88.69Q45.22 85.05 46 82.84L46 82.84Q46.78 80.89 55.36 83.10L55.36 83.10Q55.36 83.10 57.12 79.72Q58.87 76.34 59 75.69L59 75.69Q60.56 72.05 63.16 72.05L63.16 72.05Q64.46 72.05 66.34 73.35Q68.23 74.65 68.23 75.43L68.23 75.43Q68.23 76.21 69.01 76.47L69.01 76.47Q69.79 76.73 69.86 77.90Q69.92 79.07 69.20 79.33Q68.49 79.59 67.45 81.47Q66.41 83.36 64.20 86.35L64.20 86.35Q62.38 88.82 62.05 89.86Q61.73 90.90 62.77 92.72L62.77 92.72Q63.68 94.54 65.76 95.32L65.76 95.32Q67.71 95.84 70.05 98.05Q72.39 100.26 72.39 101.43L72.39 101.43Q72.39 102.21 70.83 105.46Q69.27 108.71 68.75 109.10L68.75 109.10Q68.23 109.49 68.23 110.66Q68.23 111.83 67.71 112.22Q67.19 112.61 67.71 113.78L67.71 113.78Q69.92 119.50 70.31 123.27Q70.70 127.04 70.44 139.26L70.44 139.26Q70.31 145.63 70.96 145.24L70.96 145.24Q71.09 145.24 71.35 144.59L71.35 144.59Q71.48 143.94 74.34 139.91L74.34 139.91Q77.85 135.36 80.45 128.80Q83.05 122.23 84.09 115.99L84.09 115.99Q84.48 112.74 85 110.92L85 110.92Q85.26 110.01 85.45 108.71Q85.65 107.41 85.65 106.31Q85.65 105.20 85.39 105.20Q85.13 105.20 83.57 105.98L83.57 105.98Q81.49 107.02 80.06 106.69Q78.63 106.37 76.94 104.29L76.94 104.29Q76.29 103.38 76.29 103.12Q76.29 102.86 76.94 102.08L76.94 102.08Q77.98 101.30 80.65 99.80Q83.31 98.31 84.74 98.05L84.74 98.05Q85.91 97.53 86.17 96.94Q86.43 96.36 86.69 92.98L86.69 92.98Q87.08 88.69 87.08 81.80L87.08 81.80ZM186.01 77.64Q186.79 77.38 187.96 77.58Q189.13 77.77 189.39 78.16L189.39 78.16Q189.65 78.68 192.64 79.98L192.64 79.98Q194.72 81.15 195.18 81.61Q195.63 82.06 195.63 83.49L195.63 83.49Q195.63 85.44 194.20 86.48Q192.77 87.52 191.93 87.52Q191.08 87.52 191.08 88.04Q191.08 88.56 190.43 88.56Q189.78 88.56 187.83 90.64Q185.88 92.72 185.23 94.02L185.23 94.02Q184.45 95.58 184.97 97.08Q185.49 98.57 184.84 100.52L184.84 100.52Q184.45 101.56 184.00 102.14Q183.54 102.73 182.37 102.99L182.37 102.99Q180.81 103.51 180.03 102.99Q179.25 102.47 175.74 98.96L175.74 98.96Q172.88 96.10 172.88 94.41Q172.88 92.72 173.92 92.33L173.92 92.33Q174.57 91.81 176.59 92.07Q178.60 92.33 179.77 92.85L179.77 92.85Q180.29 93.11 180.88 92.46Q181.46 91.81 181.78 90.44Q182.11 89.08 182.24 87L182.24 87L182.50 83.62L180.03 83.75Q177.56 84.01 173.79 85.31L173.79 85.31Q169.89 86.74 167.55 86.55Q165.21 86.35 165.21 84.53L165.21 84.53Q165.21 82.84 170.41 80.50L170.41 80.50Q173.40 79.07 175.35 78.61Q177.30 78.16 181.20 78.09Q185.10 78.03 186.01 77.64L186.01 77.64ZM233.98 69.45Q234.76 68.54 237.62 70.23L237.62 70.23Q239.70 71.53 240.48 71.53L240.48 71.53Q241.39 71.53 242.43 72.83Q243.47 74.13 243.34 75.04L243.34 75.04Q243.21 75.95 242.11 77.38Q241 78.81 240.35 78.81L240.35 78.81Q239.83 78.81 236.91 81.28Q233.98 83.75 231.64 85.44L231.64 85.44L229.43 87.13L233.20 86.87Q237.10 86.61 245.36 87.58Q253.61 88.56 255.82 89.47L255.82 89.47Q258.16 90.64 259.33 90.90Q260.50 91.16 260.89 92.98L260.89 92.98Q261.41 94.80 260.95 96.16Q260.50 97.53 258.29 99.61L258.29 99.61Q253.35 104.94 248.41 109.88Q243.47 114.82 243.08 114.82L243.08 114.82Q242.43 114.82 241.72 113.97Q241 113.13 241 112.48L241 112.48Q241 111.70 239.18 110.66Q237.36 109.62 237.36 108.64Q237.36 107.67 236.84 107.28L236.84 107.28Q236.32 107.02 237.75 106.24L237.75 106.24Q238.01 105.98 238.40 105.85L238.40 105.85Q240.48 104.81 241.32 103.25Q242.17 101.69 244.12 99.09Q246.07 96.49 246.59 95.06L246.59 95.06Q246.98 94.28 246.85 93.95Q246.72 93.63 245.94 93.50L245.94 93.50Q244.90 93.37 241.91 92.72L241.91 92.72Q236.45 91.68 230.08 92.07L230.08 92.07Q229.17 92.07 228.84 94.80Q228.52 97.53 228.26 99.35L228.26 99.35L228 101.30L231.77 101.17L235.54 101.17L235.67 103.51Q235.80 106.24 234.56 107.02Q233.33 107.80 228.78 108.32L228.78 108.32Q223.71 108.71 223.45 108.97Q223.19 109.23 224.56 110.34Q225.92 111.44 226.31 113.78L226.31 113.78Q226.44 115.47 226.31 116.12Q226.18 116.77 225.27 117.55L225.27 117.55L223.84 118.98L225.27 119.50Q227.48 120.41 228.39 119.37L228.39 119.37Q229.17 118.72 229.50 119.24Q229.82 119.76 231.77 121.19Q233.72 122.62 233.98 123.53Q234.24 124.44 235.28 125.09L235.28 125.09Q235.93 125.48 236.51 125.28Q237.10 125.09 238.79 123.66L238.79 123.66Q241 121.71 243.47 118.72L243.47 118.72Q246.07 115.21 246.78 114.50Q247.50 113.78 248.28 113.78L248.28 113.78Q249.32 113.78 249.58 114.82Q249.84 115.86 250.49 115.86Q251.14 115.86 252.70 117.75Q254.26 119.63 254.26 120.54L254.26 120.54Q254.26 121.84 251.79 123.40L251.79 123.40Q249.97 124.44 247.50 126.59Q245.03 128.73 243.60 128.80Q242.17 128.86 241 129.51L241 129.51L239.83 130.16L241.26 131.46Q245.16 135.10 251.53 139.26Q257.90 143.42 261.93 144.98L261.93 144.98Q265.44 146.41 267.32 147.38Q269.21 148.36 270.25 148.36L270.25 148.36Q271.55 148.36 273.24 149.59Q274.93 150.83 274.93 151.74L274.93 151.74Q274.93 152.91 275.58 154.34L275.58 154.34Q275.97 155.12 275.84 155.57Q275.71 156.03 274.87 156.81Q274.02 157.59 273.50 157.78Q272.98 157.98 271.68 157.59L271.68 157.59Q268.95 156.94 265.57 158.76L265.57 158.76Q264.66 159.15 263.49 159.15L263.49 159.15Q261.93 159.15 258.36 157.00Q254.78 154.86 252.18 152.39L252.18 152.39Q251.53 151.61 248.80 149.66L248.80 149.66Q244.12 146.41 240.87 141.99L240.87 141.99Q236.19 136.01 235.28 136.01L235.28 136.01Q234.76 136.01 235.02 140.30L235.02 140.30Q235.28 146.80 234.44 155.38Q233.59 163.96 232.29 164.87L232.29 164.87Q231.64 165.39 231.64 166.17L231.64 166.17Q231.64 166.95 227.87 170.72Q224.10 174.49 223.06 174.75L223.06 174.75Q221.76 175.01 220.39 174.29Q219.03 173.58 218.44 173.58Q217.86 173.58 217.41 171.96Q216.95 170.33 215.91 169.81L215.91 169.81Q214.35 168.90 212.79 166.69Q211.23 164.48 211.75 163.96L211.75 163.96Q212.01 163.57 215.65 164.35L215.65 164.35Q219.42 164.87 220.46 164.74Q221.50 164.61 223.06 163.18L223.06 163.18Q226.44 160.32 227.87 153.30L227.87 153.30Q228.13 151.22 228.32 147.38Q228.52 143.55 228.45 140.50Q228.39 137.44 228.13 137.44L228.13 137.44Q227.74 137.44 225.53 140.56L225.53 140.56Q223.84 142.90 220.78 145.63Q217.73 148.36 216.95 148.36L216.95 148.36Q216.17 148.36 216.17 148.81Q216.17 149.27 214.48 150.18L214.48 150.18Q210.19 152.39 205.51 156.68L205.51 156.68Q201.22 160.71 200.44 160.19L200.44 160.19Q200.31 159.93 204.47 155.38L204.47 155.38Q214.09 145.24 220.85 135.23L220.85 135.23Q223.45 131.20 222.15 131.33L222.15 131.33Q221.50 131.33 220.07 133.02L220.07 133.02Q218.38 134.71 215.52 137.18L215.52 137.18L210.58 141.47Q208.63 143.16 207.26 144.00Q205.90 144.85 202.65 146.80L202.65 146.80Q198.62 149.40 198.62 147.97L198.62 147.97Q198.62 147.58 202.65 143.42L202.65 143.42Q207.98 137.96 212.86 132.18Q217.73 126.39 217.73 125.48L217.73 125.48Q217.73 123.79 207.46 130.29L207.46 130.29Q204.99 131.72 202.39 133.41L202.39 133.41Q196.15 137.70 196.15 136.14L196.15 136.14Q196.15 135.49 197.45 134.65Q198.75 133.80 201.74 130.94L201.74 130.94L213.31 119.50Q221.50 111.44 221.11 111.05L221.11 111.05Q220.98 110.92 220.59 110.79L220.59 110.79Q219.29 110.66 217.47 111.70L217.47 111.70Q216.17 112.61 215.59 112.67Q215 112.74 212.92 112.09Q210.84 111.44 209.41 110.20Q207.98 108.97 207.98 107.80L207.98 107.80Q207.98 106.50 207.33 107.41L207.33 107.41Q206.94 107.93 206.68 109.23L206.68 109.23Q206.29 111.57 204.28 112.74Q202.26 113.91 200.31 112.87L200.31 112.87Q199.66 112.48 197.91 112.87Q196.15 113.26 195.63 113.78L195.63 113.78Q195.24 114.43 190.95 117.16Q186.66 119.89 186.40 119.89L186.40 119.89Q185.49 119.89 186.27 117.81L186.27 117.81Q186.66 116.64 187.38 114.63Q188.09 112.61 189.26 110.66Q190.43 108.71 190.43 108.45L190.43 108.45Q190.17 108.19 188.68 108.25Q187.18 108.32 184.97 108.64Q182.76 108.97 181.85 109.23L181.85 109.23L180.16 109.75L181.98 111.57Q183.80 113.26 183.80 114.30L183.80 114.30Q184.32 119.24 184.32 143.03L184.32 143.03Q184.32 151.74 183.87 154.08Q183.41 156.42 181.33 159.02L181.33 159.02Q180.55 159.93 178.15 161.36Q175.74 162.79 174.83 162.79L174.83 162.79Q174.05 162.79 173.01 162.53Q171.97 162.27 171.25 161.81Q170.54 161.36 170.67 161.10L170.67 161.10Q171.45 159.28 168.46 156.42L168.46 156.42Q166.38 154.34 164.50 151.48Q162.61 148.62 162.61 147.58L162.61 147.58Q162.61 145.11 165.47 147.58L165.47 147.58Q170.28 152 172.88 152L172.88 152Q174.31 152 175.48 150.31L175.48 150.31Q176.13 149.14 176.32 147.25Q176.52 145.37 176.52 138.87L176.52 138.87Q176.78 128.99 176.52 120.15L176.52 120.15L176.39 111.18L174.05 111.57Q170.67 111.96 164.30 115.21L164.30 115.21Q162.61 116.25 161.96 117.42L161.96 117.42Q161.57 118.33 160.85 118.53Q160.14 118.72 157.80 118.72L157.80 118.72L154.16 118.72L154.16 116.51Q154.29 114.30 154.68 113.78L154.68 113.78Q155.20 113.39 162.41 110.66Q169.63 107.93 174.18 106.50L174.18 106.50Q179.90 104.68 189.65 102.99L189.65 102.99Q193.29 102.47 194.98 101.82Q196.67 101.17 198.36 102.21L198.36 102.21Q199.79 102.99 202.91 104.03Q206.03 105.07 206.29 104.81Q206.55 104.55 205.77 103.64L205.77 103.64Q202.65 99.74 203.17 97.14L203.17 97.14Q203.69 94.54 204.08 94.54L204.08 94.54Q204.21 94.54 204.60 94.80L204.60 94.80Q205.38 95.32 208.24 93.37L208.24 93.37Q210.32 91.94 213.96 90.51Q217.60 89.08 219.03 89.08L219.03 89.08Q219.81 89.08 220.98 87.52L220.98 87.52Q223.45 83.88 226.18 82.06L226.18 82.06Q228.39 80.89 230.21 77.38L230.21 77.38L231.12 75.82L229.30 74.91Q227.35 73.87 227.22 73.28Q227.09 72.70 229.17 71.33Q231.25 69.97 232.29 69.97L232.29 69.97Q233.72 69.97 233.98 69.45L233.98 69.45ZM221.24 98.96L221.24 93.76L219.42 93.76Q217.47 93.76 216.50 94.47Q215.52 95.19 214.09 95.19L214.09 95.19Q213.18 95.32 211.81 96.23Q210.45 97.14 210.45 97.66L210.45 97.66Q210.45 98.05 211.49 99.61Q212.53 101.17 212.53 102.21L212.53 102.21Q212.53 102.99 213.44 104.81Q214.35 106.63 214.87 106.63L214.87 106.63Q215.52 106.63 218.25 105.33L218.25 105.33L221.11 104.29L221.24 98.96ZM220.07 64.64L221.50 63.21L224.23 66.07Q227.09 69.06 227.09 69.71L227.09 69.71Q227.09 70.88 221.37 76.14Q215.65 81.41 211.36 84.14L211.36 84.14Q206.03 87.65 204.66 88.43Q203.30 89.21 202.65 88.82L202.65 88.82Q201.61 87.52 207.59 81.41L207.59 81.41Q210.58 78.16 214.74 72.83Q218.90 67.50 218.90 66.72L218.90 66.72Q218.90 66.07 220.07 64.64L220.07 64.64Z" stroke="white" stroke-width="12" stroke-linejoin="round" fill="white" opacity="0.9" />
        
        <!-- 2. 文字本体 (深色) -->
        <path d="M98.91 105.59Q99.43 105.07 99.95 105.33Q100.47 105.59 102.16 107.15L102.16 107.15L104.24 109.10L103.98 112.48Q103.59 115.86 104.17 117.35Q104.76 118.85 104.05 119.89Q103.33 120.93 103.72 121.58Q104.11 122.23 104.50 129.25L104.50 129.25Q104.89 137.57 106.32 140.88Q107.75 144.20 111.52 145.63L111.52 145.63Q114.51 146.54 119.19 146.54L119.19 146.54Q128.16 146.54 130.50 143.29L130.50 143.29Q133.62 139 134.40 134.58L134.40 134.58Q134.79 132.11 135.70 128.86L135.70 128.86Q136.48 126.26 137 126.32Q137.52 126.39 137.52 128.86L137.52 128.86Q137.52 130.81 138.04 130.81L138.04 130.81Q138.56 130.81 139.34 132.56Q140.12 134.32 140.12 135.75L140.12 135.75Q140.12 137.31 142.59 139.91L142.59 139.91Q144.02 141.73 144.41 142.70Q144.80 143.68 144.80 145.24L144.80 145.24Q144.80 146.80 144.09 148.75Q143.37 150.70 142.72 151.48L142.72 151.48Q142.46 151.61 142.07 152.91Q141.68 154.21 139.08 157.46Q136.48 160.71 134.14 161.49L134.14 161.49Q130.63 162.53 123.67 161.88Q116.72 161.23 111.52 159.15L111.52 159.15Q108.53 158.11 104.24 153.88Q99.95 149.66 99.17 147.32L99.17 147.32Q97.74 142.64 97.22 122.49L97.22 122.49Q97.09 112.09 97.35 109.29Q97.61 106.50 98.91 105.59L98.91 105.59ZM108.53 73.09Q109.57 72.05 113.67 72.24Q117.76 72.44 121.01 73.74L121.01 73.74Q123.35 74.65 123.87 75.11Q124.39 75.56 124.65 76.86L124.65 76.86Q125.56 82.58 123.87 84.40L123.87 84.40Q122.57 85.83 120.81 86.41Q119.06 87 117.76 86.35L117.76 86.35Q116.20 85.83 112.11 81.86Q108.01 77.90 108.27 77.12L108.27 77.12Q108.53 76.34 108.14 76.34L108.14 76.34Q107.75 76.34 107.69 75.75Q107.62 75.17 107.88 74.39Q108.14 73.61 108.53 73.09L108.53 73.09ZM87.08 81.80Q87.21 77.25 87.41 75.69Q87.60 74.13 88.45 72.31Q89.29 70.49 89.68 70.16Q90.07 69.84 91.11 69.97L91.11 69.97Q92.67 70.23 94.49 71.53L94.49 71.53Q98.65 74.39 97.87 83.36L97.87 83.36Q97.61 87.91 97.28 88.43Q96.96 88.95 96.83 91.68L96.83 91.68Q96.57 93.50 96.70 93.83Q96.83 94.15 97.74 94.15L97.74 94.15Q98.91 94.15 103.07 93.11Q107.23 92.07 107.81 91.61Q108.40 91.16 110.74 90.83Q113.08 90.51 114.90 90.25L114.90 90.25Q118.80 89.60 120.49 94.54L120.49 94.54Q121.14 96.88 121.14 97.72Q121.14 98.57 120.36 99.61L120.36 99.61Q119.58 100.26 117.31 100.39Q115.03 100.52 112.82 100L112.82 100Q111.52 99.61 106.58 99.87Q101.64 100.13 98.65 100.78L98.65 100.78Q95.01 101.56 95.01 105.33L95.01 105.33Q95.01 107.15 94.03 111.50Q93.06 115.86 92.54 117.16L92.54 117.16Q91.89 118.20 91.89 119.24L91.89 119.24Q91.89 120.93 89.42 125.87L89.42 125.87Q88.77 127.30 88.77 127.82Q88.77 128.34 87.21 131.72Q85.65 135.10 85.65 135.75Q85.65 136.40 84.03 138.74Q82.40 141.08 82.40 141.60L82.40 141.60Q82.40 142.12 80.58 144.46Q78.76 146.80 77.20 148.10L77.20 148.10Q75.12 150.05 72.13 152.32Q69.14 154.60 68.81 154.60Q68.49 154.60 68.10 155.31Q67.71 156.03 67.71 157.07L67.71 157.07Q67.71 157.98 64.40 161.43Q61.08 164.87 57.18 166.69L57.18 166.69Q54.06 168.12 53.34 168.25Q52.63 168.38 51.20 167.86L51.20 167.86Q49.38 166.82 49.38 165.65Q49.38 164.48 48.80 164.48Q48.21 164.48 47.89 163.57Q47.56 162.66 43.01 158.24L43.01 158.24Q35.73 151.09 38.59 151.48L38.59 151.48Q39.50 151.61 41.71 152.65L41.71 152.65Q43.79 153.69 46.20 153.88Q48.60 154.08 49.90 153.43L49.90 153.43Q51.20 152.65 53.80 149.07Q56.40 145.50 57.31 143.03L57.31 143.03Q58.35 140.04 58.74 132.63L58.74 132.63Q59 125.22 57.96 125.09L57.96 125.09Q57.44 125.09 55.62 126.78L55.62 126.78Q53.80 128.21 53.41 128.28Q53.02 128.34 51.39 129.90Q49.77 131.46 49.38 131.46Q48.99 131.46 47.17 133.15L47.17 133.15Q45.87 134.45 41.39 137.70Q36.90 140.95 36.38 140.95L36.38 140.95Q36.25 140.95 33.39 142.77Q30.53 144.59 30.01 144.33Q29.49 144.07 28.19 144.46L28.19 144.46Q27.02 144.85 26.11 144.72Q25.20 144.59 25.20 143.94L25.20 143.94Q25.20 143.42 32.22 136.20Q39.24 128.99 41.45 126.52L41.45 126.52L44.83 122.49Q49.38 117.42 49.38 116.38L49.38 116.38Q49.38 116.12 51.59 113.13L51.59 113.13Q54.71 109.23 55.49 107.22Q56.27 105.20 55.88 102.73L55.88 102.73Q55.36 100.26 54.84 99.67Q54.32 99.09 53.15 100.39L53.15 100.39Q46.78 107.41 44.96 108.19L44.96 108.19Q43.40 108.97 42.10 110.27L42.10 110.27Q38.46 113.78 35.60 114.43L35.60 114.43Q33.91 114.69 34.30 114.04L34.30 114.04Q34.43 113.39 35.73 112.35L35.73 112.35Q37.29 110.79 37.09 110.14Q36.90 109.49 37.42 108.71L37.42 108.71Q38.33 107.93 41.78 103.38Q45.22 98.83 45.22 98.57L45.22 98.57Q45.22 98.18 50.42 91.68L50.42 91.68Q51.07 90.90 48.73 88.69L48.73 88.69Q45.22 85.05 46 82.84L46 82.84Q46.78 80.89 55.36 83.10L55.36 83.10Q55.36 83.10 57.12 79.72Q58.87 76.34 59 75.69L59 75.69Q60.56 72.05 63.16 72.05L63.16 72.05Q64.46 72.05 66.34 73.35Q68.23 74.65 68.23 75.43L68.23 75.43Q68.23 76.21 69.01 76.47L69.01 76.47Q69.79 76.73 69.86 77.90Q69.92 79.07 69.20 79.33Q68.49 79.59 67.45 81.47Q66.41 83.36 64.20 86.35L64.20 86.35Q62.38 88.82 62.05 89.86Q61.73 90.90 62.77 92.72L62.77 92.72Q63.68 94.54 65.76 95.32L65.76 95.32Q67.71 95.84 70.05 98.05Q72.39 100.26 72.39 101.43L72.39 101.43Q72.39 102.21 70.83 105.46Q69.27 108.71 68.75 109.10L68.75 109.10Q68.23 109.49 68.23 110.66Q68.23 111.83 67.71 112.22Q67.19 112.61 67.71 113.78L67.71 113.78Q69.92 119.50 70.31 123.27Q70.70 127.04 70.44 139.26L70.44 139.26Q70.31 145.63 70.96 145.24L70.96 145.24Q71.09 145.24 71.35 144.59L71.35 144.59Q71.48 143.94 74.34 139.91L74.34 139.91Q77.85 135.36 80.45 128.80Q83.05 122.23 84.09 115.99L84.09 115.99Q84.48 112.74 85 110.92L85 110.92Q85.26 110.01 85.45 108.71Q85.65 107.41 85.65 106.31Q85.65 105.20 85.39 105.20Q85.13 105.20 83.57 105.98L83.57 105.98Q81.49 107.02 80.06 106.69Q78.63 106.37 76.94 104.29L76.94 104.29Q76.29 103.38 76.29 103.12Q76.29 102.86 76.94 102.08L76.94 102.08Q77.98 101.30 80.65 99.80Q83.31 98.31 84.74 98.05L84.74 98.05Q85.91 97.53 86.17 96.94Q86.43 96.36 86.69 92.98L86.69 92.98Q87.08 88.69 87.08 81.80L87.08 81.80ZM186.01 77.64Q186.79 77.38 187.96 77.58Q189.13 77.77 189.39 78.16L189.39 78.16Q189.65 78.68 192.64 79.98L192.64 79.98Q194.72 81.15 195.18 81.61Q195.63 82.06 195.63 83.49L195.63 83.49Q195.63 85.44 194.20 86.48Q192.77 87.52 191.93 87.52Q191.08 87.52 191.08 88.04Q191.08 88.56 190.43 88.56Q189.78 88.56 187.83 90.64Q185.88 92.72 185.23 94.02L185.23 94.02Q184.45 95.58 184.97 97.08Q185.49 98.57 184.84 100.52L184.84 100.52Q184.45 101.56 184.00 102.14Q183.54 102.73 182.37 102.99L182.37 102.99Q180.81 103.51 180.03 102.99Q179.25 102.47 175.74 98.96L175.74 98.96Q172.88 96.10 172.88 94.41Q172.88 92.72 173.92 92.33L173.92 92.33Q174.57 91.81 176.59 92.07Q178.60 92.33 179.77 92.85L179.77 92.85Q180.29 93.11 180.88 92.46Q181.46 91.81 181.78 90.44Q182.11 89.08 182.24 87L182.24 87L182.50 83.62L180.03 83.75Q177.56 84.01 173.79 85.31L173.79 85.31Q169.89 86.74 167.55 86.55Q165.21 86.35 165.21 84.53L165.21 84.53Q165.21 82.84 170.41 80.50L170.41 80.50Q173.40 79.07 175.35 78.61Q177.30 78.16 181.20 78.09Q185.10 78.03 186.01 77.64L186.01 77.64ZM233.98 69.45Q234.76 68.54 237.62 70.23L237.62 70.23Q239.70 71.53 240.48 71.53L240.48 71.53Q241.39 71.53 242.43 72.83Q243.47 74.13 243.34 75.04L243.34 75.04Q243.21 75.95 242.11 77.38Q241 78.81 240.35 78.81L240.35 78.81Q239.83 78.81 236.91 81.28Q233.98 83.75 231.64 85.44L231.64 85.44L229.43 87.13L233.20 86.87Q237.10 86.61 245.36 87.58Q253.61 88.56 255.82 89.47L255.82 89.47Q258.16 90.64 259.33 90.90Q260.50 91.16 260.89 92.98L260.89 92.98Q261.41 94.80 260.95 96.16Q260.50 97.53 258.29 99.61L258.29 99.61Q253.35 104.94 248.41 109.88Q243.47 114.82 243.08 114.82L243.08 114.82Q242.43 114.82 241.72 113.97Q241 113.13 241 112.48L241 112.48Q241 111.70 239.18 110.66Q237.36 109.62 237.36 108.64Q237.36 107.67 236.84 107.28L236.84 107.28Q236.32 107.02 237.75 106.24L237.75 106.24Q238.01 105.98 238.40 105.85L238.40 105.85Q240.48 104.81 241.32 103.25Q242.17 101.69 244.12 99.09Q246.07 96.49 246.59 95.06L246.59 95.06Q246.98 94.28 246.85 93.95Q246.72 93.63 245.94 93.50L245.94 93.50Q244.90 93.37 241.91 92.72L241.91 92.72Q236.45 91.68 230.08 92.07L230.08 92.07Q229.17 92.07 228.84 94.80Q228.52 97.53 228.26 99.35L228.26 99.35L228 101.30L231.77 101.17L235.54 101.17L235.67 103.51Q235.80 106.24 234.56 107.02Q233.33 107.80 228.78 108.32L228.78 108.32Q223.71 108.71 223.45 108.97Q223.19 109.23 224.56 110.34Q225.92 111.44 226.31 113.78L226.31 113.78Q226.44 115.47 226.31 116.12Q226.18 116.77 225.27 117.55L225.27 117.55L223.84 118.98L225.27 119.50Q227.48 120.41 228.39 119.37L228.39 119.37Q229.17 118.72 229.50 119.24Q229.82 119.76 231.77 121.19Q233.72 122.62 233.98 123.53Q234.24 124.44 235.28 125.09L235.28 125.09Q235.93 125.48 236.51 125.28Q237.10 125.09 238.79 123.66L238.79 123.66Q241 121.71 243.47 118.72L243.47 118.72Q246.07 115.21 246.78 114.50Q247.50 113.78 248.28 113.78L248.28 113.78Q249.32 113.78 249.58 114.82Q249.84 115.86 250.49 115.86Q251.14 115.86 252.70 117.75Q254.26 119.63 254.26 120.54L254.26 120.54Q254.26 121.84 251.79 123.40L251.79 123.40Q249.97 124.44 247.50 126.59Q245.03 128.73 243.60 128.80Q242.17 128.86 241 129.51L241 129.51L239.83 130.16L241.26 131.46Q245.16 135.10 251.53 139.26Q257.90 143.42 261.93 144.98L261.93 144.98Q265.44 146.41 267.32 147.38Q269.21 148.36 270.25 148.36L270.25 148.36Q271.55 148.36 273.24 149.59Q274.93 150.83 274.93 151.74L274.93 151.74Q274.93 152.91 275.58 154.34L275.58 154.34Q275.97 155.12 275.84 155.57Q275.71 156.03 274.87 156.81Q274.02 157.59 273.50 157.78Q272.98 157.98 271.68 157.59L271.68 157.59Q268.95 156.94 265.57 158.76L265.57 158.76Q264.66 159.15 263.49 159.15L263.49 159.15Q261.93 159.15 258.36 157.00Q254.78 154.86 252.18 152.39L252.18 152.39Q251.53 151.61 248.80 149.66L248.80 149.66Q244.12 146.41 240.87 141.99L240.87 141.99Q236.19 136.01 235.28 136.01L235.28 136.01Q234.76 136.01 235.02 140.30L235.02 140.30Q235.28 146.80 234.44 155.38Q233.59 163.96 232.29 164.87L232.29 164.87Q231.64 165.39 231.64 166.17L231.64 166.17Q231.64 166.95 227.87 170.72Q224.10 174.49 223.06 174.75L223.06 174.75Q221.76 175.01 220.39 174.29Q219.03 173.58 218.44 173.58Q217.86 173.58 217.41 171.96Q216.95 170.33 215.91 169.81L215.91 169.81Q214.35 168.90 212.79 166.69Q211.23 164.48 211.75 163.96L211.75 163.96Q212.01 163.57 215.65 164.35L215.65 164.35Q219.42 164.87 220.46 164.74Q221.50 164.61 223.06 163.18L223.06 163.18Q226.44 160.32 227.87 153.30L227.87 153.30Q228.13 151.22 228.32 147.38Q228.52 143.55 228.45 140.50Q228.39 137.44 228.13 137.44L228.13 137.44Q227.74 137.44 225.53 140.56L225.53 140.56Q223.84 142.90 220.78 145.63Q217.73 148.36 216.95 148.36L216.95 148.36Q216.17 148.36 216.17 148.81Q216.17 149.27 214.48 150.18L214.48 150.18Q210.19 152.39 205.51 156.68L205.51 156.68Q201.22 160.71 200.44 160.19L200.44 160.19Q200.31 159.93 204.47 155.38L204.47 155.38Q214.09 145.24 220.85 135.23L220.85 135.23Q223.45 131.20 222.15 131.33L222.15 131.33Q221.50 131.33 220.07 133.02L220.07 133.02Q218.38 134.71 215.52 137.18L215.52 137.18L210.58 141.47Q208.63 143.16 207.26 144.00Q205.90 144.85 202.65 146.80L202.65 146.80Q198.62 149.40 198.62 147.97L198.62 147.97Q198.62 147.58 202.65 143.42L202.65 143.42Q207.98 137.96 212.86 132.18Q217.73 126.39 217.73 125.48L217.73 125.48Q217.73 123.79 207.46 130.29L207.46 130.29Q204.99 131.72 202.39 133.41L202.39 133.41Q196.15 137.70 196.15 136.14L196.15 136.14Q196.15 135.49 197.45 134.65Q198.75 133.80 201.74 130.94L201.74 130.94L213.31 119.50Q221.50 111.44 221.11 111.05L221.11 111.05Q220.98 110.92 220.59 110.79L220.59 110.79Q219.29 110.66 217.47 111.70L217.47 111.70Q216.17 112.61 215.59 112.67Q215 112.74 212.92 112.09Q210.84 111.44 209.41 110.20Q207.98 108.97 207.98 107.80L207.98 107.80Q207.98 106.50 207.33 107.41L207.33 107.41Q206.94 107.93 206.68 109.23L206.68 109.23Q206.29 111.57 204.28 112.74Q202.26 113.91 200.31 112.87L200.31 112.87Q199.66 112.48 197.91 112.87Q196.15 113.26 195.63 113.78L195.63 113.78Q195.24 114.43 190.95 117.16Q186.66 119.89 186.40 119.89L186.40 119.89Q185.49 119.89 186.27 117.81L186.27 117.81Q186.66 116.64 187.38 114.63Q188.09 112.61 189.26 110.66Q190.43 108.71 190.43 108.45L190.43 108.45Q190.17 108.19 188.68 108.25Q187.18 108.32 184.97 108.64Q182.76 108.97 181.85 109.23L181.85 109.23L180.16 109.75L181.98 111.57Q183.80 113.26 183.80 114.30L183.80 114.30Q184.32 119.24 184.32 143.03L184.32 143.03Q184.32 151.74 183.87 154.08Q183.41 156.42 181.33 159.02L181.33 159.02Q180.55 159.93 178.15 161.36Q175.74 162.79 174.83 162.79L174.83 162.79Q174.05 162.79 173.01 162.53Q171.97 162.27 171.25 161.81Q170.54 161.36 170.67 161.10L170.67 161.10Q171.45 159.28 168.46 156.42L168.46 156.42Q166.38 154.34 164.50 151.48Q162.61 148.62 162.61 147.58L162.61 147.58Q162.61 145.11 165.47 147.58L165.47 147.58Q170.28 152 172.88 152L172.88 152Q174.31 152 175.48 150.31L175.48 150.31Q176.13 149.14 176.32 147.25Q176.52 145.37 176.52 138.87L176.52 138.87Q176.78 128.99 176.52 120.15L176.52 120.15L176.39 111.18L174.05 111.57Q170.67 111.96 164.30 115.21L164.30 115.21Q162.61 116.25 161.96 117.42L161.96 117.42Q161.57 118.33 160.85 118.53Q160.14 118.72 157.80 118.72L157.80 118.72L154.16 118.72L154.16 116.51Q154.29 114.30 154.68 113.78L154.68 113.78Q155.20 113.39 162.41 110.66Q169.63 107.93 174.18 106.50L174.18 106.50Q179.90 104.68 189.65 102.99L189.65 102.99Q193.29 102.47 194.98 101.82Q196.67 101.17 198.36 102.21L198.36 102.21Q199.79 102.99 202.91 104.03Q206.03 105.07 206.29 104.81Q206.55 104.55 205.77 103.64L205.77 103.64Q202.65 99.74 203.17 97.14L203.17 97.14Q203.69 94.54 204.08 94.54L204.08 94.54Q204.21 94.54 204.60 94.80L204.60 94.80Q205.38 95.32 208.24 93.37L208.24 93.37Q210.32 91.94 213.96 90.51Q217.60 89.08 219.03 89.08L219.03 89.08Q219.81 89.08 220.98 87.52L220.98 87.52Q223.45 83.88 226.18 82.06L226.18 82.06Q228.39 80.89 230.21 77.38L230.21 77.38L231.12 75.82L229.30 74.91Q227.35 73.87 227.22 73.28Q227.09 72.70 229.17 71.33Q231.25 69.97 232.29 69.97L232.29 69.97Q233.72 69.97 233.98 69.45L233.98 69.45ZM221.24 98.96L221.24 93.76L219.42 93.76Q217.47 93.76 216.50 94.47Q215.52 95.19 214.09 95.19L214.09 95.19Q213.18 95.32 211.81 96.23Q210.45 97.14 210.45 97.66L210.45 97.66Q210.45 98.05 211.49 99.61Q212.53 101.17 212.53 102.21L212.53 102.21Q212.53 102.99 213.44 104.81Q214.35 106.63 214.87 106.63L214.87 106.63Q215.52 106.63 218.25 105.33L218.25 105.33L221.11 104.29L221.24 98.96ZM220.07 64.64L221.50 63.21L224.23 66.07Q227.09 69.06 227.09 69.71L227.09 69.71Q227.09 70.88 221.37 76.14Q215.65 81.41 211.36 84.14L211.36 84.14Q206.03 87.65 204.66 88.43Q203.30 89.21 202.65 88.82L202.65 88.82Q201.61 87.52 207.59 81.41L207.59 81.41Q210.58 78.16 214.74 72.83Q218.90 67.50 218.90 66.72L218.90 66.72Q218.90 66.07 220.07 64.64L220.07 64.64Z" fill="#1a1a1a" filter="url(#text-grit)" />
    </g>
</svg>